<svg width="500" height="457" viewBox="0 0 500 457" fill="none" xmlns="http://www.w3.org/2000/svg">
<path fill-rule="evenodd" clip-rule="evenodd" d="M179.189 421.204L180.738 422.325C177.242 425.463 171.982 421.562 169.033 417.905C164.292 412.026 159.479 405.777 158.036 398.363C157.215 394.145 157.544 389.797 157.875 385.512L159.213 368.234C159.806 360.578 160.4 352.908 161.726 345.344C165.313 324.872 174.342 305.38 187.638 289.406L187.771 289.245C190.119 286.426 192.683 283.347 192.638 279.691C192.542 271.956 196.996 264.729 202.844 259.666C208.692 254.603 215.853 251.354 222.904 248.173C226.099 246.733 230.27 245.442 232.746 247.922C237.838 253.023 246.336 249.773 253.062 247.183C261.32 244.002 270.14 242.288 278.988 242.145C279.246 242.141 279.505 242.137 279.767 242.133L279.767 242.133C285.079 242.058 291.059 241.972 294.3 237.856C296.363 235.236 300.309 235.388 303.621 235.784L326.4 238.508C328.141 238.717 330.227 239.192 330.776 240.857C332.248 245.321 337.439 247.143 341.939 248.5C357.938 253.324 373.577 259.874 387.16 269.608C400.743 279.342 412.224 292.436 418.315 307.997C408.411 294.46 398.25 280.667 384.505 271.053C380.571 268.302 376.387 265.927 372.141 263.688C362.118 258.405 351.686 253.85 340.85 250.543C290.544 235.188 232.352 249.429 194.822 286.279C189.38 291.622 184.278 297.508 181.192 304.482L185.269 305.746C178.807 308.634 174.008 314.962 172.969 321.963C175.57 317.509 179.276 313.707 183.661 310.993C182.406 315.186 179.142 318.555 175.941 321.858C171.863 326.067 167.888 330.169 168.31 335.731C170.246 330.649 175.125 326.813 180.52 326.129C171.962 334.491 162.779 344.304 163.052 356.266C166.173 349.359 171.474 343.456 178.007 339.611L168.602 352.25C165.045 357.029 161.3 362.491 162.113 368.393C165.207 362.84 169.631 358.034 174.909 354.491C172.367 360.272 168.738 365.572 164.268 370.032C168.519 369.518 172.612 367.758 175.907 365.025C174.526 366.953 173.281 369.13 173.234 371.502C173.188 373.874 174.725 376.42 177.073 376.761C177.783 375.172 180.013 374.5 181.483 375.433C177.027 379.769 176.981 387.801 181.387 392.187C181.778 390.126 183.517 388.389 185.579 387.999C182.293 393.745 181.702 400.961 184.009 407.165C184.708 403.65 186.658 400.397 189.429 398.124C187.832 406.463 184.299 414.424 179.189 421.204ZM177.243 418.548C180.025 418.519 181.755 415.406 182.046 412.639C182.393 409.329 181.57 406.02 180.754 402.793L175.915 383.65C175.004 383.939 174.898 384.93 174.787 385.968C174.693 386.854 174.594 387.774 173.988 388.32C172.763 386.797 172.624 384.49 173.657 382.831C174.7 381.155 174.018 378.809 172.538 377.502C171.059 376.196 169 375.753 167.028 375.688C165.962 375.653 164.828 375.735 163.955 376.348C163.083 376.962 162.624 378.267 163.244 379.135C165.088 381.72 166.476 384.629 167.323 387.689C167.387 387.918 167.448 388.15 167.51 388.382C167.931 389.971 168.364 391.605 169.526 392.737C170.425 393.613 170.654 394.949 170.836 396.19L172.315 406.248C172.584 408.079 172.853 409.946 172.545 411.771C172.237 413.596 171.251 415.405 169.596 416.233L174.881 418.031C175.648 418.292 176.433 418.556 177.243 418.548ZM234.847 253.679C233.806 253.9 232.932 252.984 232.187 252.203L232.101 252.114C231.337 251.315 230.023 250.618 229.218 251.376C219.839 260.2 209.165 267.647 197.644 273.402C195.553 274.447 195.273 277.264 195.271 279.601C195.271 280.382 196.018 281.478 196.506 280.867C198.881 277.891 201.97 275.58 205.023 273.304C213.613 266.9 222.307 260.435 232.155 256.212C233.35 255.7 234.749 254.976 234.847 253.679ZM329.121 243.755C328.589 242.508 327.077 242.058 325.745 241.807C322.115 241.123 318.419 240.813 314.728 240.503C309.658 240.078 304.595 239.653 299.716 238.261C298.153 237.815 296.816 239.399 295.959 240.78C298.53 240.513 301.118 240.402 303.702 240.45C308.201 240.532 312.675 241.093 317.14 241.652C319.408 241.937 321.693 242.224 323.868 242.928C324.122 243.01 324.377 243.098 324.634 243.186L324.634 243.186C326.119 243.696 327.654 244.223 329.121 243.755ZM281.099 262.928C282.127 263.163 283.106 263.931 283.26 264.975C283.413 266.016 282.702 267.03 281.793 267.56C280.884 268.09 279.81 268.238 278.767 268.376L275.629 268.792C275.314 268.834 274.989 268.879 274.716 269.04C273.927 269.508 273.982 270.774 274.627 271.425C275.272 272.077 276.262 272.239 277.179 272.237C281.449 272.229 285.491 269.156 286.795 265.09C287.105 264.124 287.269 263.051 286.885 262.112C286.691 261.636 286.366 261.223 286.004 260.857C284.325 259.154 281.823 258.404 279.438 258.573C277.053 258.741 274.784 259.757 272.843 261.154C271.913 261.823 271.026 262.607 270.498 263.624C269.969 264.641 269.855 265.932 270.447 266.914C270.673 267.288 271.021 267.62 271.453 267.69C271.884 267.761 272.382 267.482 272.436 267.048C272.585 265.843 273.465 264.824 274.514 264.211C275.562 263.598 276.772 263.328 277.963 263.09C278.998 262.883 280.07 262.694 281.099 262.928ZM196.944 322.577C198.118 315.637 203.724 309.994 210.259 307.38C213.86 305.939 217.981 305.307 221.603 306.695C222.497 307.038 223.362 307.511 224.006 308.219C224.611 308.884 224.991 309.723 225.279 310.576C227.119 316.033 225.251 322.345 221.298 326.533C217.345 330.721 211.59 332.919 205.845 333.331C204.005 333.463 202.029 333.388 200.509 332.342C198.989 331.296 198.234 328.973 199.405 327.546C199.958 327.573 200.256 328.066 200.562 328.572C200.713 328.822 200.866 329.076 201.053 329.277C201.69 329.963 202.746 330.013 203.682 329.973C207.755 329.802 211.89 328.792 215.205 326.42C218.521 324.048 220.903 320.172 220.833 316.096C220.811 314.782 220.525 313.439 219.781 312.356C218.56 310.579 216.25 309.778 214.099 309.919C211.947 310.061 209.93 311.015 208.098 312.153C205.688 313.649 203.46 315.529 201.949 317.931C200.437 320.332 199.699 323.301 200.338 326.065C199.773 327.084 198.094 326.881 197.4 325.945C196.707 325.008 196.75 323.726 196.944 322.577ZM234.457 379.778C231.477 381.695 229.006 384.696 228.547 388.21C228.175 391.053 229.128 393.884 230.067 396.593C230.8 398.707 231.557 400.867 232.953 402.615C235.474 405.774 239.648 407.081 243.638 407.723C244.724 407.898 246.373 407.407 245.986 406.377C241.773 406.3 237.629 404.347 234.888 401.148C232.146 397.948 230.852 393.555 231.42 389.38C231.54 388.501 231.74 387.627 232.109 386.821C232.855 385.191 234.247 383.937 235.753 382.964C238.995 380.869 242.942 379.887 246.787 380.219C250.495 380.539 254.199 382.165 256.462 385.119C258.726 388.073 259.265 392.431 257.268 395.571C256.943 396.082 256.706 396.984 257.302 397.091C260.517 395.359 262.302 391.539 262.121 387.891C261.941 384.243 260.015 380.829 257.368 378.312C255.904 376.92 254.171 375.744 252.207 375.271C249.618 374.647 246.909 375.29 244.333 375.968C240.906 376.869 237.437 377.86 234.457 379.778ZM380.816 384.309C370.04 380.285 358.33 378.785 346.887 379.963C342.089 380.457 337.276 381.436 332.963 383.595C324.824 387.668 319.005 396.054 318.036 405.103C317.068 414.153 320.982 423.579 328.075 429.282C330.764 431.445 333.817 433.064 336.875 434.685C338.961 435.792 341.05 436.9 343.027 438.183C343.591 438.722 342.321 439.261 341.578 439.021C334.666 436.79 327.953 433.396 323.023 428.063C317.025 421.575 314.1 412.361 315.257 403.601C316.414 394.841 321.631 386.702 329.108 381.994C335.022 378.269 342.092 376.7 349.077 376.448C356.061 376.196 363.025 377.194 369.932 378.265C374.245 378.933 379.303 380.214 380.816 384.309ZM267.426 397.811C266.937 396.69 264.969 396.398 264.61 397.567C262.324 405.006 255.065 410.631 247.29 410.988C245.533 411.068 243.775 410.905 242.024 410.736C238.253 410.371 234.363 409.94 231.061 408.083C226.312 405.413 223.455 399.93 223.421 394.483C223.388 389.035 225.972 383.74 229.895 379.961C229.351 378.436 227.012 379.172 225.851 380.301C219.416 386.556 218.312 397.352 222.827 405.108C227.343 412.863 236.806 417.21 245.726 416.225C254.645 415.239 262.699 409.266 266.846 401.307C267.411 400.222 267.915 398.933 267.426 397.811ZM211.567 435.481C210.114 441.054 209.977 446.964 211.168 452.599C211.702 455.126 211.761 456.518 211.772 456.778C211.773 456.808 211.774 456.823 211.774 456.823C211.775 456.823 211.776 456.808 211.777 456.778C211.789 456.517 211.852 455.12 212.398 452.589C213.617 446.944 213.327 440.981 211.567 435.481ZM219.287 438.851C217.223 443.179 217.479 448.533 219.946 452.643C220.501 453.567 220.921 454.318 221.232 454.871C221.649 455.616 221.867 456.005 221.942 455.979C222.024 455.951 221.937 455.429 221.754 454.336C221.68 453.898 221.591 453.368 221.492 452.742L219.287 438.851ZM225.1 444.377C224.224 447.14 224.868 450.334 226.747 452.541C228.666 454.794 229.292 455.517 228.708 452.615C228.111 449.654 226.872 446.824 225.1 444.377ZM393.307 412.952C390.672 423.533 382.252 431.55 374.09 438.78C374.463 439.584 375.668 439.296 376.441 438.861C384.709 434.207 391.4 426.623 394.452 417.64C397.505 408.656 396.746 398.335 391.927 390.162C391.523 389.476 391.007 388.745 390.226 388.592C389.444 388.439 388.544 389.346 389.003 389.996C393.635 396.556 395.248 405.16 393.307 412.952ZM274.433 317.417C274.414 315.743 274.437 313.932 275.448 312.597C276.839 310.76 279.48 310.567 281.784 310.535C282.813 310.521 283.854 310.508 284.854 310.746C286.985 311.253 288.682 312.825 290.195 314.409C290.53 314.76 290.886 315.192 290.803 315.67C290.701 316.263 289.958 316.536 289.369 316.414C288.977 316.334 288.625 316.139 288.273 315.944L288.273 315.944L288.273 315.944L288.273 315.944L288.273 315.943L288.272 315.943C288.095 315.845 287.918 315.747 287.735 315.663C285.616 314.69 283.125 315.756 281.222 317.103C280.923 317.314 280.6 317.586 280.593 317.952C280.586 318.321 280.901 318.606 281.198 318.824C283.77 320.707 287.063 321.58 290.23 321.216C290.987 321.129 291.877 320.852 292.073 320.115C292.15 319.827 292.12 319.489 292.091 319.161C292.043 318.614 291.998 318.1 292.458 317.91C292.697 317.811 292.969 317.882 293.218 317.954C294.932 318.453 296.937 319.254 297.269 321.009C297.365 321.515 297.296 322.044 297.135 322.534C296.663 323.968 295.347 325.088 293.856 325.325C293.194 325.43 292.518 325.373 291.85 325.315C290.106 325.166 288.359 325.016 286.63 324.737C283.456 324.226 280.352 323.28 277.432 321.934C276.418 321.467 275.365 320.893 274.852 319.902C274.461 319.149 274.443 318.265 274.433 317.417ZM339.632 276.142C338.612 273.384 336.146 271.208 333.283 270.538C332.398 270.331 331.397 270.28 330.646 270.793C329.895 271.306 329.637 272.557 330.353 273.118C331.047 273.662 330.628 274.942 329.779 275.184C328.931 275.426 328.018 274.85 327.594 274.076C327.17 273.302 327.125 272.383 327.12 271.501C327.113 270.323 327.221 269.01 328.091 268.216C328.422 267.914 328.835 267.719 329.245 267.536C330.939 266.778 332.812 266.136 334.623 266.543C336.349 266.93 337.724 268.204 338.928 269.5C339.914 270.563 340.847 271.675 341.722 272.832C342.494 273.851 343.235 274.938 343.524 276.182C343.814 277.427 343.564 278.871 342.603 279.713C341.662 280.537 340.214 280.607 339.071 280.098C338.062 279.649 337.2 278.66 337.275 277.557C337.351 276.455 338.705 275.541 339.632 276.142ZM348.737 353.671C351.268 353.599 353.625 351.65 354.172 349.178C354.505 347.675 354.094 345.887 352.784 345.078C351.827 344.488 350.624 344.531 349.502 344.603C347.948 344.702 346.335 344.838 344.985 345.614C343.634 346.39 342.631 347.997 343.054 349.496C343.741 351.933 346.206 353.744 348.737 353.671ZM349.062 350.02C348.573 350.151 347.875 350.025 347.831 349.521C347.812 349.311 347.926 349.113 348.054 348.946C348.774 348.015 350.143 347.653 351.229 348.108C350.851 349.032 350.026 349.76 349.062 350.02ZM350.369 312.574C349.957 311.622 350.755 310.514 351.726 310.149C352.503 309.858 353.347 309.888 354.184 309.918L354.185 309.918C354.393 309.926 354.601 309.933 354.807 309.936C355.844 309.948 356.989 309.776 357.661 308.987C357.899 308.709 358.059 308.3 357.879 307.982C357.69 307.65 357.244 307.592 356.862 307.573C354.22 307.436 351.101 307.517 349.578 309.68C349.25 310.145 348.449 309.988 348.143 309.509C347.837 309.029 347.907 308.401 348.081 307.859C348.705 305.921 350.496 304.511 352.452 303.946C354.408 303.38 356.509 303.559 358.495 304.008C359.165 304.16 359.86 304.359 360.349 304.841C360.736 305.224 360.954 305.747 361.095 306.273C361.772 308.788 360.773 311.669 358.685 313.225C356.597 314.781 353.551 314.915 351.334 313.549C350.938 313.305 350.554 313 350.369 312.574ZM341.313 357.013C342.54 358.483 343.993 359.819 345.756 360.568C349.319 362.08 353.873 360.683 355.975 357.433C356.74 356.249 357.082 354.443 355.951 353.603C354.138 357.413 348.88 359.096 345.192 357.046C344.486 356.653 343.843 356.151 343.259 355.592C340.607 353.053 339.224 348.906 340.78 345.58C341.287 344.496 342.066 343.56 342.918 342.719C344.776 340.885 347.434 339.383 349.914 340.199C350.017 340.233 350.119 340.27 350.222 340.308C350.569 340.436 350.918 340.564 351.283 340.543C351.757 340.516 352.251 340.092 352.129 339.634C352.093 339.498 352.009 339.381 351.923 339.27C350.389 337.318 347.381 336.715 345.214 337.925C342.634 339.367 340.013 341.063 338.642 343.68C336.409 347.94 338.231 353.32 341.313 357.013ZM382.397 291.312C382.284 291.475 382.312 291.701 382.339 291.918C382.371 292.175 382.402 292.418 382.191 292.522C381.419 292.903 380.494 292.864 379.672 292.611C377.425 291.922 375.919 289.86 374.648 287.884C373.905 286.728 373.165 285.5 373.045 284.131C372.925 282.762 373.624 281.221 374.943 280.834C376.413 280.402 377.855 281.495 378.999 282.514C380.29 283.663 381.609 284.848 382.408 286.381C383.207 287.914 383.385 289.894 382.397 291.312ZM377.512 286.183C377.829 286.491 378.003 286.905 378.176 287.319C378.347 287.726 378.518 288.134 378.826 288.442C379.217 288.831 379.809 289.005 380.348 288.889C379.339 287.326 378.168 285.867 376.862 284.541C376.512 284.646 376.483 285.165 376.693 285.463C376.821 285.644 376.999 285.777 377.178 285.91C377.294 285.997 377.41 286.083 377.512 286.183ZM185.202 427.416C185.077 429.468 185.235 431.845 186.876 433.081C187.424 432.776 187.387 431.993 187.318 431.37C186.894 427.536 188.084 423.84 189.281 420.12C190.138 417.457 191 414.781 191.276 412.033C191.356 411.235 191.144 410.145 190.343 410.114C189.743 410.091 189.356 410.724 189.114 411.273C186.871 416.367 185.54 421.861 185.202 427.416ZM344.469 353.428C346.322 354.248 348.376 355.083 350.314 354.495C351.085 354.261 351.772 353.815 352.447 353.375C352.444 354.508 351.47 355.46 350.384 355.784C349.298 356.108 348.13 355.934 347.023 355.695C345.792 355.428 344.289 354.674 344.469 353.428ZM197.931 447.995C198.404 447.153 198.484 446.154 198.554 445.191L199.114 437.521C199.388 433.757 199.663 429.978 199.417 426.212C199.386 425.738 199.337 425.237 199.06 424.85C198.783 424.463 198.197 424.257 197.818 424.544C197.539 424.755 197.468 425.138 197.42 425.485C196.813 429.839 196.489 434.234 196.449 438.63C196.421 441.819 196.567 445.113 197.931 447.995ZM189.548 441.403C189.057 441.818 188.239 441.453 187.968 440.869C187.697 440.286 187.806 439.605 187.922 438.972C189.136 432.353 190.513 425.763 192.051 419.211C192.09 419.047 192.132 418.877 192.238 418.746C192.643 418.246 193.461 418.749 193.749 419.326C194.454 420.739 194.116 422.425 193.763 423.965L189.972 440.501C189.896 440.831 189.806 441.184 189.548 441.403ZM202.679 441.697C202.468 444.179 202.84 446.671 203.211 449.135C203.344 450.012 203.975 451.178 204.768 450.779L206.313 434.26C206.376 433.588 206.418 432.842 206.001 432.312C205.584 431.781 204.529 431.803 204.396 432.464L203.257 438.129C203.02 439.31 202.782 440.495 202.679 441.697ZM362.196 391.069C357.798 388.804 352.445 387.912 347.877 389.809C344.465 391.226 334.82 397.345 333.537 405.189C332.678 410.441 332.686 415.806 334.524 420.876L334.82 421.672C335.367 423.107 337.111 424.758 338.086 423.57C335.24 418.424 334.708 412.052 336.662 406.504C338.616 400.957 343.024 396.325 348.468 394.099C349.613 393.631 350.81 393.262 352.042 393.146C354.534 392.91 357.021 393.717 359.248 394.858C364.044 397.315 369.985 401.402 372.268 406.283C374.469 410.988 376.089 416.6 374.098 421.398C372.106 426.196 359.024 429.668 359.024 429.668L360.472 432.31C360.472 432.31 367.795 430.865 372.268 427.607C391.044 413.932 366.403 393.235 362.196 391.069Z" fill="#00160A"/>
<path fill-rule="evenodd" clip-rule="evenodd" d="M30.2785 323.546C23.6379 324.258 16.6043 322.722 11.4194 318.512C7.74731 315.531 5.16708 311.383 3.35654 307.013C1.39083 302.269 0.260673 297.18 0.033472 292.049C-0.0520636 290.118 -0.00611871 288.151 0.561482 286.302C1.49564 283.261 3.74532 280.82 6.04181 278.617C10.9275 273.932 16.6702 269.656 23.3675 268.671C27.9312 268 32.5735 268.915 37.0408 270.064C40.5492 270.967 44.0532 272.032 47.209 273.811C54.1822 277.743 59.0145 285.242 59.7135 293.216C60.4125 301.191 59.5525 306.475 48.7906 316.383C43.1984 320.034 36.9191 322.833 30.2785 323.546ZM41.9891 298.513C40.9121 298.852 39.8386 299.453 38.7267 299.257C36.4551 298.857 36.0486 295.741 36.553 293.491C37.9969 287.048 42.4878 281.358 48.4186 278.457C47.076 276.022 43.5095 275.843 40.987 277.013C38.4646 278.184 36.4927 280.293 34.0533 281.628C32.8393 282.292 31.4007 282.763 30.08 282.349C27.907 281.668 27.0775 278.822 27.7889 276.659C28.5003 274.496 30.2758 272.882 31.9807 271.372C25.803 271.589 19.6902 273.443 14.4332 276.694C10.3177 279.24 6.41403 283.414 6.96007 288.222C10.3628 285.483 14.3579 283.484 18.59 282.403C19.4877 282.173 20.6143 282.058 21.176 282.795C21.6015 283.353 21.4794 284.156 21.2067 284.802C19.854 288.011 15.8759 289.087 13.4085 291.543C13.0845 291.866 12.7738 292.238 12.6953 292.689C12.5416 293.571 13.3829 294.376 14.2666 294.524C15.1504 294.671 16.0376 294.349 16.8758 294.033C18.6168 293.376 20.3578 292.719 22.0988 292.063C23.3591 291.587 24.8554 291.133 25.9762 291.88C27.1357 292.653 27.245 294.412 26.5897 295.641C25.9344 296.871 24.7315 297.696 23.5739 298.472C20.7837 300.342 17.9936 302.212 15.2034 304.082C12.8673 305.648 10.2501 307.759 10.4721 310.562C10.6811 313.201 13.5842 314.994 16.2259 314.825C18.8676 314.655 21.1924 313.04 23.1421 311.249C25.0918 309.459 26.8516 307.414 29.1158 306.043C30.5932 305.148 32.7013 304.651 33.9015 305.893C34.8287 306.853 34.7393 308.396 34.3913 309.685C33.3883 313.398 30.6764 316.612 27.185 318.226C30.0257 318.882 32.988 319.005 35.8734 318.589C37.5191 318.351 39.2226 317.895 40.4126 316.734C41.6026 315.573 42.0634 313.529 41.0311 312.226C39.4914 310.282 39.5526 307.437 40.5364 305.16C41.5201 302.884 43.2772 301.045 44.9985 299.26C44.5058 298.244 43.0662 298.175 41.9891 298.513ZM55.1403 302.926C56.6873 299.351 56.7436 295.307 56.3519 291.431C55.9186 287.144 54.4241 282.242 50.3857 280.74C44.4678 283.196 39.9008 288.676 38.5514 294.94C38.438 295.466 38.3493 296.032 38.5564 296.529C38.7634 297.026 39.3788 297.389 39.8557 297.139C41.4919 296.282 43.5041 295.795 45.1675 296.598C46.8308 297.402 47.6409 299.909 46.294 301.173C44.8059 302.57 43.2775 304.022 42.4746 305.899C41.6718 307.775 41.7875 310.204 43.2991 311.575C44.4349 312.606 44.4378 314.629 43.305 315.663C46.526 314.722 48.8211 311.952 50.9099 309.326C52.5066 307.318 54.1218 305.28 55.1403 302.926ZM18.0599 284.435C14.7093 285.825 11.4569 287.451 8.33509 289.299C7.59269 289.738 6.84235 290.203 6.29951 290.873C5.56649 291.779 5.28796 292.96 5.06145 294.103C4.32965 297.794 3.95233 301.768 5.50259 305.198C5.99742 306.292 6.67378 307.293 7.34673 308.288C7.54535 308.582 7.77087 308.896 8.11135 308.995C8.45183 309.094 8.90151 308.819 8.82153 308.474C8.57505 307.409 9.38126 306.408 10.1768 305.659C14.8364 301.273 21.1138 298.755 25.3041 293.919C24.6684 293.166 23.4627 293.52 22.5563 293.907C20.3977 294.828 18.1718 295.593 15.9023 296.191C14.7316 296.5 13.4269 296.751 12.3585 296.182C10.7947 295.348 10.5402 293.067 11.3662 291.5C12.1921 289.932 13.7623 288.92 15.2767 287.999C16.791 287.079 18.3797 286.118 19.2883 284.597C19.123 284.164 18.4881 284.258 18.0599 284.435ZM29.5272 313.817C31.008 312.627 32.6078 311.224 32.7693 309.331C32.8538 308.342 32.219 307.131 31.2303 307.226C30.9264 307.255 30.6489 307.405 30.3869 307.562C26.0809 310.134 23.2471 315.164 18.3897 316.415C19.7623 317.029 21.1935 317.512 22.6576 317.856C23.0935 317.958 23.5475 318.049 23.986 317.958C24.4962 317.852 24.9231 317.516 25.3293 317.19C26.7286 316.065 28.1279 314.941 29.5272 313.817ZM33.5317 272.696C32.5735 273.755 31.6153 274.815 30.6571 275.875C29.8982 276.714 29.0839 277.822 29.5064 278.872C29.8177 279.645 30.7368 280.036 31.568 279.971C32.3992 279.907 33.1563 279.482 33.8533 279.024C36.3373 277.395 38.5739 275.175 41.4726 274.523C39.4627 273.791 37.4528 273.058 35.4429 272.326C35.0244 272.173 34.5577 272.021 34.1459 272.191C33.8988 272.293 33.7109 272.497 33.5317 272.696Z" fill="#00160A"/>
<path fill-rule="evenodd" clip-rule="evenodd" d="M70.9344 146.106C70.6837 151.128 66.8094 156.566 61.8165 155.972C59.5631 153.366 57.7994 150.131 56.0563 146.934C52.7087 140.794 49.4372 134.794 42.9194 133.655C36.5177 132.536 30.5558 137.244 26.5688 142.376C20.7943 149.809 17.0627 158.813 15.8864 168.151C15.1948 173.641 17.4463 181.255 22.9467 180.651C29.2295 179.961 33.6976 184.903 38.2422 189.929C42.4483 194.582 46.72 199.306 52.5563 199.705C59.5057 200.179 65.1821 204.343 70.9281 208.557C74.7658 211.372 78.6345 214.209 82.9342 215.986C91.0228 219.327 100.35 218.681 108.607 215.779C116.863 212.877 124.211 207.878 131.166 202.565L131.53 202.286C135.326 199.383 139.3 196.344 144.021 195.704C168.159 192.434 190.61 178.276 203.962 157.903C222.893 173.036 249.362 178.208 272.597 171.315C276.539 170.146 280.506 168.577 283.43 165.686C286.354 162.794 288.011 158.303 286.574 154.45C285.003 150.237 280.306 147.981 275.842 147.438C273.395 147.141 270.929 147.229 268.461 147.317H268.461H268.461H268.461H268.461C266.426 147.389 264.391 147.462 262.364 147.319C250.09 146.451 239.87 137.986 230.578 129.922C244.042 125.792 254.96 115.418 262.168 103.319C269.377 91.2192 273.24 77.4357 276.175 63.6609C277.719 56.4121 278.867 48.246 274.725 42.0994C272.872 39.3483 270.154 37.337 267.446 35.3326C264.396 33.0756 261.358 30.8276 259.58 27.5423C256.161 21.2231 249.495 17.4758 243.172 14.0622C226.626 5.12883 207.621 -4.06535 189.789 1.90058C182.843 4.22446 176.842 8.67748 170.992 13.0846C161.277 20.4031 150.87 28.9879 149.021 41.0094C133.125 33.8979 112.561 39.5774 102.568 53.8388C100.282 57.1008 98.5273 60.698 96.7744 64.2916C94.7107 68.5223 92.6495 72.7479 89.7272 76.4154C77.99 71.0677 66.0311 66.2068 53.8914 61.8493C48.5092 59.9174 42.0798 58.2102 37.4414 61.5547C33.7223 64.2363 32.5814 69.4999 33.6732 73.9531C34.7649 78.4063 37.6793 82.1815 40.8046 85.5364C47.585 92.8146 55.7297 98.8177 64.6887 103.14C64.9778 103.28 65.2689 103.418 65.5609 103.557C68.366 104.894 71.2497 106.267 73.1176 108.72C75.18 111.429 75.3079 115.96 72.4167 117.758C68.1462 120.412 67.36 126.368 68.2353 131.319C68.5344 133.011 68.9734 134.686 69.4119 136.36L69.412 136.36C70.2568 139.584 71.0994 142.8 70.9344 146.106ZM186.872 172.583C176.112 183.882 160.97 190.492 145.487 192.424C130.004 194.357 114.194 191.845 99.4039 186.874C103.382 186.871 106.259 181.663 104.143 178.294C95.9914 187.796 83.5647 192.246 71.7234 196.31C61.0256 199.981 48.2388 197.315 40.3808 189.18C32.5228 181.046 30.3963 167.698 35.9224 157.83C38.3245 153.541 42.3986 149.807 47.2968 149.386C52.195 148.965 57.4692 153.026 57.0149 157.921C54.2893 157.448 51.4209 159.763 51.3087 162.527C61.8532 161.391 71.7663 155.349 77.6079 146.497C79.6241 143.442 81.1564 140.114 82.6899 136.784C83.7195 134.547 84.7498 132.31 85.9275 130.153C88.8594 124.782 93.0689 119.663 98.9023 117.818C103.584 116.337 108.645 117.159 113.484 117.993L134.982 121.7C136.591 120.311 133.985 118.085 131.904 117.65C125.186 116.246 118.373 115.381 111.56 114.516C105.242 113.714 98.9239 112.911 92.6793 111.679C79.7006 109.119 66.6561 104.435 57.2093 95.1743C63.6172 91.488 68.4924 85.2241 70.4928 78.1074C70.8975 76.6676 69.9333 74.3025 68.7641 75.235C67.4282 79.855 65.9803 84.6735 62.6333 88.127C59.2864 91.5804 53.4117 93.0974 49.6235 90.1346C44.7058 86.2884 39.5355 82.0928 37.5907 76.1602C35.6458 70.2277 38.7224 62.2604 44.923 61.533C47.7062 61.2065 50.427 62.3566 52.9935 63.4816L78.8866 74.8318C86.593 78.2099 94.4142 81.6217 102.739 82.8475C108.584 83.7081 114.528 83.4666 120.431 83.2231L137.165 82.5329C137.85 82.5046 138.552 82.4726 139.182 82.2039C140.863 81.4866 141.433 79.4332 141.804 77.6433C146.295 55.9736 152.328 33.1053 168.651 18.1617C175.955 11.475 185.053 6.767 194.73 4.66675C204.27 2.59648 214.794 3.20511 223.007 8.48092C209.23 9.4949 195.853 15.3044 185.707 24.6792C181.444 20.1288 173.511 23.8483 170.111 29.075C164.84 37.1771 164.936 48.4321 170.344 56.4434C174.895 63.1869 176.583 71.233 178.275 79.2979C179.83 86.7098 181.388 94.1376 185.176 100.584C191.168 110.783 202.326 117.33 213.979 119.359C225.632 121.389 237.713 119.269 248.789 115.116C236.393 127.48 216.591 131.756 200.197 125.61C199.002 125.162 197.814 124.661 196.624 124.16L196.624 124.16L196.624 124.16L196.623 124.16L196.623 124.16C192.856 122.574 189.077 120.982 185.036 121.029C187.403 123.536 190.427 125.418 193.721 126.434C189.923 132.814 185.938 139.083 181.773 145.23C181.24 146.016 180.633 146.854 179.721 147.12C178.705 147.416 177.644 146.91 176.718 146.398C169.061 142.165 162.197 136.502 156.587 129.788L145.365 143.438C151.124 150.477 157.857 156.719 165.312 161.929C155.39 174.186 140.357 182.17 124.646 183.527C140.909 184.355 157.374 176.726 167.257 163.784C173.514 167.297 180.088 170.246 186.872 172.583ZM238.305 52.5535C241.899 48.6348 243.231 43.0376 242.924 37.7294C242.617 32.4213 240.831 27.3163 238.855 22.3801C244.003 21.7698 249.233 23.712 253.334 26.8834C257.434 30.0547 260.514 34.37 263.041 38.8966C266.103 44.3837 268.451 50.317 269.47 56.5179C271.869 71.1183 266.747 86.0051 259.456 98.8804C258.041 101.38 256.517 103.863 254.451 105.859C252.37 107.869 249.81 109.314 247.186 110.533C236.36 115.563 223.907 117.014 212.214 114.609C219.678 108.394 224.95 99.8326 228.307 90.7185C231.664 81.6045 233.201 71.9177 234.086 62.2453L234.09 62.191C234.314 59.7521 234.548 57.1887 235.938 55.1746C236.398 54.5079 236.968 53.9298 237.538 53.3513C237.797 53.0882 238.056 52.8251 238.305 52.5535ZM224.798 92.8393C221.576 100.373 216.586 107.291 209.822 111.915C209.029 112.456 208.179 112.979 207.226 113.09C206.384 113.189 205.542 112.957 204.734 112.702C198.983 110.886 193.548 107.668 189.858 102.898C188.519 101.166 187.426 99.2567 186.451 97.2973C179.349 83.0272 178.654 65.7139 184.588 50.92C184.871 50.2134 185.277 49.4199 186.024 49.2717C186.989 49.0801 187.731 50.0682 188.273 50.89C192.706 57.607 200.995 61.0076 209.035 61.3597C217.075 61.7119 224.984 59.4268 232.608 56.8498C231.219 60.2475 230.865 63.9491 230.514 67.6157L230.514 67.6212C230.47 68.0811 230.426 68.5405 230.38 68.9987C229.562 77.1516 228.019 85.3053 224.798 92.8393ZM223.161 22.8472C227.275 21.912 232.075 21.6546 235.218 24.4687C236.234 25.3777 236.988 26.5435 237.609 27.7566C241.502 35.3656 239.977 45.387 233.997 51.4932C227.083 58.5524 216.14 59.7162 206.294 58.8782C202.762 58.5776 199.128 58.034 196.113 56.1698C192.21 53.7576 189.9 49.5072 187.763 45.4479C197.249 34.8473 209.289 26.0006 223.161 22.8472ZM256.435 150.814C255.143 154.073 253.84 157.377 253.418 160.857C252.995 164.337 253.545 168.071 255.662 170.865C238.099 171.837 220.252 166.421 206.19 155.854C210.725 149.437 214.305 142.348 216.779 134.89C217.756 131.944 221.486 130.715 224.514 131.397C227.301 132.025 229.642 133.814 231.925 135.558L232.204 135.771C232.308 135.85 232.411 135.929 232.514 136.007C239.99 141.683 248.228 146.259 256.435 150.814ZM133.709 195.321C130.94 198.439 127.629 201.028 124.248 203.469C117.19 208.566 109.493 213.198 100.914 214.678C88.3416 216.848 74.7586 211.426 67.137 201.194L94.5594 190.965C95.2159 190.72 95.8959 190.471 96.5955 190.51C96.9908 190.533 97.371 190.646 97.752 190.76C98.0056 190.835 98.2595 190.911 98.5185 190.96C99.3989 191.127 100.287 190.981 101.179 190.834C101.734 190.742 102.291 190.651 102.848 190.634C104.9 190.572 106.787 191.51 108.653 192.438C109.127 192.674 109.6 192.909 110.073 193.127C117.345 196.471 125.729 195.93 133.709 195.321ZM94.1149 77.9922C93.9217 77.56 94.1255 77.0626 94.3295 76.6353C99.9453 64.8738 107.374 53.9802 116.274 44.4579C122.533 53.1495 126.699 63.338 128.323 73.9252C128.647 76.0416 128.297 78.9683 126.172 79.2331C115.988 80.5024 105.626 80.3299 95.4905 78.7224C94.9547 78.6375 94.3363 78.4875 94.1149 77.9922ZM132.47 77.2666C130.373 65.7391 126.02 54.6264 119.73 44.7415C125.054 41.9384 131.348 41.8926 137.365 41.9114C141.165 41.9233 145.314 42.0572 148.21 44.5177L140.698 66.6832C139.422 70.4461 138.131 74.3145 138.292 78.2844L133.543 78.3606C133.374 78.3633 133.199 78.365 133.043 78.2998C132.663 78.1412 132.544 77.6717 132.47 77.2666ZM193.569 133.99C194.83 131.845 196.032 129.552 196.159 127.067C201.841 129.622 208.097 130.888 214.325 130.743C215.303 130.72 215.268 132.227 214.867 133.119C213.654 135.818 212.44 138.52 211.037 141.125C209.597 143.799 207.961 146.362 206.328 148.922L202.413 155.059C201.877 155.899 201.324 156.758 200.527 157.357C198.39 158.963 195.34 158.191 192.901 157.095C188.855 155.277 185.132 152.746 181.953 149.653C186.367 144.865 190.268 139.604 193.569 133.99ZM46.6526 139.293C48.535 141.191 49.7652 143.623 50.9646 146.012L45.3174 146.818C43.4358 147.086 41.5066 147.37 39.8435 148.29C38.2255 149.185 36.9776 150.62 35.8794 152.108C31.2866 158.33 28.7411 166.038 28.725 173.772C28.7192 176.565 25.4178 178.558 22.7157 177.85C20.0137 177.141 18.1781 174.458 17.711 171.704C17.2439 168.95 17.9017 166.134 18.7267 163.465C21.63 154.073 26.8234 145.204 34.5071 139.073C35.9752 137.902 37.5973 136.805 39.4519 136.509C42.0915 136.087 44.7702 137.395 46.6526 139.293ZM283.796 155.014C284.449 155.853 284.933 156.875 284.903 157.938C284.865 159.312 283.995 160.517 283.057 161.522C277.606 167.363 269.228 169.352 261.293 170.29C260.769 170.352 260.221 170.407 259.731 170.215C259.327 170.058 259.004 169.747 258.716 169.424C256.802 167.271 256.043 164.261 256.199 161.384C256.354 158.508 257.347 155.737 258.583 153.135C258.843 152.586 259.145 152.011 259.676 151.717C260.099 151.482 260.605 151.464 261.089 151.451L270.692 151.2C273.056 151.138 275.447 151.078 277.761 151.565C280.076 152.053 282.343 153.147 283.796 155.014ZM176.768 64.2751C172.855 57.0247 169.928 49.2432 168.091 41.2115L169.672 36.9889C171.628 33.2026 174.094 29.68 176.981 26.5457C178.157 25.2693 180.196 25.1281 181.819 25.7431C183.442 26.3582 184.747 27.5812 186.007 28.7749L191.677 34.1465C191.846 34.3062 192.022 34.4786 192.078 34.7039C192.184 35.1281 191.833 35.5165 191.516 35.8177C188.861 38.3421 186.502 41.1883 184.611 44.3257C181.752 49.068 180.006 54.3823 178.284 59.645L176.768 64.2751ZM191.259 23.5537C202.803 17.3709 215.43 11.5528 228.451 12.9442C235.259 13.6716 241.771 16.3799 247.441 20.2164C231.197 16.0408 213.09 19.8924 199.952 30.3179C197.922 31.9292 194.875 33.6794 193.067 31.8216C192.603 31.3447 192.299 30.6763 192.003 30.0252C191.53 28.9822 191.076 27.9833 190.015 27.8857C189.002 27.7925 188.552 26.4189 188.981 25.4974C189.411 24.5759 190.363 24.0337 191.259 23.5537ZM159.546 136.64C161.824 138.829 164.333 140.762 166.837 142.69L176.951 150.48C173.836 153.224 170.789 156.045 167.813 158.939C160.727 154.74 154.402 149.26 149.236 142.845C152.064 139.899 154.778 136.845 157.372 133.691C157.779 134.854 158.657 135.786 159.546 136.64ZM94.5172 115.57C89.1918 119.731 83.6861 124.11 80.7569 130.2C80.1846 131.39 79.7118 132.642 79.2397 133.893L79.2396 133.893C78.2361 136.551 77.2359 139.2 75.2902 141.223C74.4278 140.969 74.0886 139.953 73.8785 139.079L71.852 130.65C71.5786 129.513 71.3033 128.344 71.4586 127.185C71.6132 126.031 72.1822 124.979 72.7411 123.958L78.6867 113.092C78.8193 112.85 78.9568 112.602 79.1692 112.425C79.6952 111.989 80.4735 112.128 81.1376 112.291L94.5172 115.57ZM181.03 152.896C184.662 156.63 189.175 159.5 194.097 161.206C195.017 160.34 196.796 160.817 197.159 162.028C195.466 164.225 193.606 166.295 191.602 168.213C190.707 169.07 189.273 168.889 188.066 168.612C182.168 167.258 176.486 164.964 171.302 161.842C170.955 161.633 170.565 161.337 170.599 160.933C170.622 160.662 170.836 160.451 171.036 160.266L178.315 153.562C179.079 152.86 180.307 152.152 181.03 152.896ZM273.964 59.2455C273.896 60.0671 273.781 60.9838 273.139 61.5005C273.133 55.0478 271.533 48.6022 268.52 42.8962C267.973 41.8612 267.381 40.8497 266.722 39.8825C266.637 39.7581 266.551 39.6337 266.464 39.5089C265.8 38.5491 265.119 37.567 264.958 36.4211L272.757 44.569C273.475 45.3187 274.213 46.1008 274.552 47.0816C274.88 48.0274 274.801 49.0589 274.719 50.0564L273.964 59.2455ZM265.002 48.891L263.236 46.6646C261.293 44.2152 258.908 41.5405 255.782 41.5371C253.967 41.5352 252.298 42.4643 250.724 43.367L248.278 44.7696C247.61 45.1527 246.924 45.5511 246.453 46.1605C245.095 47.9177 246.086 50.4852 247.37 52.2976C248.258 53.5518 249.323 54.756 250.737 55.3596C252.565 56.1403 254.668 55.795 256.584 55.2665C259.209 54.5427 261.744 53.4986 264.117 52.1646C264.876 51.738 265.715 51.1131 265.676 50.2434C265.654 49.7313 265.321 49.2926 265.002 48.891ZM249.571 50.6094C249.267 50.1255 248.953 49.6085 248.948 49.0371C248.938 47.9197 250.053 47.1699 251.034 46.6348L254.52 44.7333C255.048 44.4458 255.596 44.1517 256.195 44.1113C256.794 44.0709 257.46 44.3594 257.662 44.9252C258.256 46.5945 259.721 47.9261 261.439 48.3592C261.996 48.4994 262.175 49.2695 261.912 49.7794C261.649 50.2892 261.111 50.5872 260.597 50.8422C258.759 51.754 256.838 52.4975 254.866 53.0604C254.075 53.286 253.238 53.4834 252.438 53.2932C251.13 52.9821 250.286 51.7481 249.571 50.6094ZM224.771 67.8203C221.313 68.2228 220.656 74.4568 222.262 77.7818C222.592 78.4659 223.109 79.1703 223.863 79.2659C225.151 79.4294 225.863 77.8397 226.148 76.5726L226.155 76.5431C226.531 74.8732 228.208 67.4201 224.771 67.8203ZM206.94 75.998C207.631 74.3852 207.862 72.578 207.597 70.8433C207.475 70.0374 207.232 69.2191 206.694 68.607C206.155 67.9949 205.265 67.6391 204.498 67.915C203.803 68.1647 203.367 68.844 203.038 69.5045C201.878 71.8367 201.416 74.5106 201.725 77.097C201.869 78.3001 203.386 78.9576 204.536 78.5771C205.686 78.1966 206.462 77.1116 206.94 75.998ZM217.132 72.3071C217.669 71.8624 218.346 72.6701 218.564 73.3323C219.28 75.5085 219.872 77.7253 220.338 79.9684C220.632 81.3859 220.875 82.8586 220.562 84.2719C220.12 86.2647 218.605 87.8857 216.848 88.9239C215.09 89.9621 213.09 90.4996 211.117 91.0255C210.596 91.1644 209.942 91.2634 209.605 90.8421C209.319 90.4845 209.46 89.9243 209.786 89.6022C210.104 89.2863 210.549 89.1405 210.976 89.0002L211.001 88.9919C214.076 87.982 217.361 86.1591 218.077 83.003C218.47 81.2677 217.992 79.5243 217.511 77.7737L217.511 77.7735C217.073 76.1791 216.633 74.5786 216.849 72.9725C216.882 72.7278 216.942 72.4646 217.132 72.3071ZM195.661 65.2084C194.851 64.0869 195.5 62.3828 196.674 61.6514C197.848 60.92 199.332 60.9299 200.703 61.107C202.341 61.3185 203.952 61.735 205.487 62.3438C205.814 62.4734 206.165 62.6385 206.309 62.9592C206.576 63.5532 205.887 64.2036 205.236 64.203C204.711 64.2026 204.236 63.9504 203.767 63.701C203.653 63.6406 203.54 63.5804 203.426 63.524C200.864 62.2525 197.466 62.9895 195.661 65.2084ZM225.193 64.822C226.41 64.6195 227.702 64.9006 228.725 65.5911C229.152 65.8797 229.765 65.3943 229.767 64.8783C229.77 64.3624 229.385 63.9284 228.98 63.6094C228.106 62.9222 227.019 62.511 225.909 62.4483C225.193 62.4078 224.4 62.5463 223.939 63.0956C223.478 63.6448 223.617 64.6757 224.308 64.8669C224.555 64.9352 224.814 64.8891 225.068 64.8437C225.11 64.8363 225.152 64.8289 225.193 64.822ZM210.08 96.4593C210.423 96.2659 210.875 96.6036 210.926 96.9939C210.977 97.3842 210.755 97.7573 210.5 98.0576C209.223 99.5644 207.024 100.028 205.08 99.6752C203.137 99.3219 201.396 98.2774 199.757 97.1755C198.986 96.6573 198.227 96.1221 197.48 95.5703C196.706 94.9984 195.881 94.2986 195.788 93.3405C195.695 92.3824 196.923 91.4167 197.623 92.0766C199.346 93.6985 201.108 95.3475 203.25 96.3511C205.393 97.3547 208.02 97.6221 210.08 96.4593ZM173.197 104.141C166.02 88.5416 163.026 71.041 164.609 53.9428C164.636 53.6506 164.673 53.3377 164.866 53.1167C165.138 52.805 165.697 52.818 165.955 53.1421C165.863 62.5477 165.775 72.01 167.31 81.2899C168.846 90.5698 172.106 99.7509 178.059 107.034C178.236 107.251 178.417 107.468 178.598 107.685C179.622 108.913 180.654 110.151 181.235 111.632C177.364 111.557 174.815 107.658 173.197 104.141ZM180.236 33.6985C180.104 33.5551 179.949 33.4284 179.77 33.351C179.252 33.1276 178.645 33.3566 178.192 33.692C176.386 35.0291 176.379 38.1559 178.179 39.5012C179.057 38.753 179.959 37.9756 180.473 36.943C180.988 35.9103 181.019 34.5459 180.236 33.6985ZM195.812 50.1721C197.759 51.7524 199.977 52.9972 202.341 53.8352C209.967 56.5396 218.538 54.8417 225.898 51.4777C227.022 50.9638 228.457 51.2347 229.317 52.1233C224.591 55.4908 218.802 57.3418 212.999 57.3405C211.719 57.3402 210.441 57.2525 209.166 57.1411C206.558 56.9132 203.93 56.579 201.476 55.6655C199.022 54.752 196.731 53.2066 195.342 50.9872L195.812 50.1721ZM278.863 152.96C278.787 153.22 278.995 153.468 279.187 153.659L282.085 156.534C282.401 155.707 282.047 154.744 281.439 154.101C280.831 153.457 280.01 153.065 279.209 152.688C279.053 152.695 278.906 152.809 278.863 152.96Z" fill="#00160A"/>
<path fill-rule="evenodd" clip-rule="evenodd" d="M469.175 41.1002C472.725 42.3306 476.069 39.129 479.129 36.9479C483.862 33.5728 490.038 32.2967 495.722 33.5189C496.664 33.7217 497.652 34.026 498.273 34.7639C498.841 35.4386 499.002 36.3591 499.094 37.2362C499.653 42.6053 498.311 48.1536 495.358 52.6728C493.922 54.8714 492.122 56.829 490.838 59.1196C489.553 61.4103 488.82 64.2088 489.735 66.6704C495.175 81.3055 492.911 98.5674 483.88 111.304C474.849 124.041 459.308 131.889 443.697 131.597C435.714 131.448 427.892 129.317 420.37 126.637C417.088 125.468 413.48 124.185 410.222 125.42C404.278 127.673 398.019 129.095 391.685 129.634C390.113 129.767 388.471 129.836 387.02 129.215C384.849 128.286 383.539 125.932 383.289 123.584C383.04 121.236 383.689 118.885 384.509 116.671C386.983 109.991 394.662 99.5555 399.31 97.1517C398.934 89.0399 398.975 80.833 400.729 72.9041C402.483 64.9753 406.062 57.2816 411.933 51.6715C414.358 49.3542 417.133 47.4255 420.04 45.7519C434.742 37.287 453.146 35.5448 469.175 41.1002ZM446.786 40.4416C435.543 40.7048 424.599 45.2209 415.811 52.2372C413.23 54.2972 410.805 56.5858 408.868 59.2599C407.342 61.368 406.134 63.694 405.125 66.0934C399.139 80.3306 400.506 97.4364 408.676 110.543C408.855 110.828 409.059 111.131 409.377 111.242C409.769 111.379 410.191 111.18 410.558 110.984C436.219 97.3091 459.061 78.369 477.25 55.6827C477.683 55.1424 478.139 54.5149 478.046 53.8287C477.975 53.314 477.608 52.896 477.249 52.5201C469.488 44.3822 458.029 40.1785 446.786 40.4416ZM462.504 125.433C474.692 119.711 483.95 108.403 487.909 95.5337C488.805 92.6194 489.45 89.6068 489.513 86.5585C489.566 83.9949 489.208 81.4426 488.852 78.9035C488.334 75.2223 487.817 71.5411 487.3 67.8599C487.163 66.8839 486.222 65.5956 485.535 66.3024C466.465 85.9283 445.641 103.85 423.392 119.783C422.652 120.313 421.837 120.968 421.797 121.878C421.751 122.931 422.755 123.695 423.668 124.221C435.333 130.948 450.315 131.155 462.504 125.433ZM387.322 123.935C388.208 125.357 390.13 125.648 391.806 125.695C400.595 125.938 409.291 123.362 417.155 119.429C425.019 115.495 432.136 110.234 439.053 104.805C448.278 97.5643 457.228 89.9758 465.951 82.1364C476.753 72.4275 487.367 62.1293 494.459 49.4545C495.831 47.0027 497.097 44.3143 496.883 41.5131C496.668 38.7118 494.434 35.8837 491.626 35.9932C485.669 36.2255 479.811 38.5161 475.277 42.3866C474.375 43.1563 475.012 44.7949 476.122 45.2115C477.232 45.6282 478.469 45.2142 479.554 44.7354C480.639 44.2566 481.768 43.6967 482.947 43.8277C484.747 44.0279 486.026 45.8709 486.133 47.679C486.24 49.4872 485.44 51.225 484.498 52.772C482.755 55.635 480.478 58.1306 478.177 60.5683C457.723 82.2374 434.129 100.937 408.361 115.901C406.041 117.248 403.693 118.57 401.195 119.552C399.885 120.067 398.384 120.48 397.105 119.891C395.009 118.926 394.841 115.983 395.47 113.762C396.414 110.428 398.454 107.414 401.199 105.298C400.679 103.834 400.159 102.369 399.64 100.904C392.864 105.232 388.109 112.593 386.95 120.549C386.783 121.697 386.708 122.95 387.322 123.935ZM406.586 113.883C406.634 113.732 406.546 113.575 406.462 113.441C405.587 112.05 404.711 110.659 403.836 109.269C403.44 108.639 402.674 107.927 402.08 108.374C399.941 109.985 398.409 112.385 397.849 115.004C397.738 115.521 397.674 116.098 397.955 116.546C398.479 117.378 399.73 117.193 400.656 116.861C402.629 116.154 404.53 115.245 406.319 114.152C406.429 114.085 406.547 114.007 406.586 113.883ZM482.727 47.6832C482.64 47.3219 482.209 47.165 481.838 47.1488C480.71 47.0996 479.532 48.0267 479.603 49.1533C479.675 50.2798 481.349 50.9892 482.049 50.1034C482.26 49.836 482.349 49.495 482.434 49.1648C482.517 48.8377 482.6 48.5105 482.684 48.1833C482.725 48.0194 482.767 47.8475 482.727 47.6832Z" fill="#00160A"/>
</svg>
