<svg width="62" height="62" viewBox="0 0 62 62" fill="none" xmlns="http://www.w3.org/2000/svg">
<path d="M58.6875 56.15L5.125 56.125L5.15 2.55C5.15 1.1375 3.9875 0.0125 2.5875 0C1.175 0 0.025 1.1375 0.025 2.55L0 58.675C0 59.35 0.275 60 0.75 60.475C1.2 60.925 1.7875 61.1875 2.425 61.2125C2.475 61.2125 2.5125 61.2125 2.5625 61.2125L58.6875 61.2375C60.1 61.2375 61.25 60.1 61.25 58.6875C61.25 57.2875 60.1 56.15 58.6875 56.15Z" fill="black"/>
<path d="M13.45 12.1747L27.5375 23.9247L45.4875 24.8997C46.4375 24.9497 47.275 25.5247 47.675 26.3747L54.1 40.1872L55.475 37.1747C56.4875 35.1747 58.35 35.6872 58.875 35.9122C60.175 36.4622 60.725 38.0122 60.1375 39.2872L56.1625 47.9622C55.3 49.7497 53.4 49.5872 52.7375 49.2122L44.2 45.1872C42.925 44.5872 42.375 43.0622 42.975 41.7872C43.575 40.5122 45.1125 39.9747 46.3875 40.5747L49.2625 41.9372L43.675 29.9122L26.4 28.9747C25.85 28.9497 25.325 28.7372 24.9 28.3872L10.1625 16.0872C9.07498 15.1872 8.94998 13.5872 9.83748 12.4872C10.7125 11.4372 12.425 11.2622 13.45 12.1747Z" fill="black"/>
</svg>
