<svg width="64" height="64" viewBox="0 0 64 64" fill="none" xmlns="http://www.w3.org/2000/svg">
<path d="M32 0C20.2857 5.29429 12.7686 7.78 0 9.14286C0 20.2271 0.752857 28.1943 3.61286 35.5014C5.95146 41.4599 9.41601 46.9121 13.8171 51.56C20.9029 59.0829 28.6986 63.0457 32 64C35.3014 63.0457 43.0971 59.0829 50.1829 51.56C54.584 46.9121 58.0485 41.4599 60.3871 35.5014C63.2471 28.1943 64 20.2271 64 9.14286C51.2314 7.78 43.7143 5.29429 32 0Z" fill="#5248D4"/>
<path d="M29.1714 15.5593C28.0752 15.6828 27.0224 16.1663 26.2096 16.9148C25.4345 17.6325 25.0065 18.4478 24.9168 19.3738C24.8098 20.4876 24.9544 21.3544 25.3622 22.0669C25.718 22.6816 26.3658 23.2398 27.3058 23.7388C28.564 24.4075 29.9667 24.9065 32.5206 25.601C34.1201 26.0331 34.8431 26.262 35.3927 26.5064C36.2112 26.8716 36.6913 27.2935 36.9082 27.8413C36.9892 28.0445 36.9892 28.0574 36.9892 28.613C36.9834 30.236 36.512 31.3961 35.4852 32.3169C34.9097 32.8288 34.2444 33.212 33.4838 33.4615L33.2148 33.549V35.2106H33.3044C33.4519 35.2106 34.0796 35.0897 34.4469 34.9894C35.3609 34.745 36.2893 34.3052 37.0615 33.7547C37.3797 33.5284 37.9784 32.9934 38.23 32.7156C39.0948 31.7459 39.6154 30.7042 39.8121 29.539C39.8902 29.0837 39.896 28.3326 39.8266 27.9442C39.5258 26.2543 38.2821 25.1534 35.9046 24.4718C35.2191 24.2763 34.5423 24.1426 33.0991 23.9188C32.3211 23.7979 32.0752 23.7516 31.4505 23.6076C28.2719 22.8797 26.7071 21.5627 26.7042 19.613C26.7042 18.1778 27.5979 17.028 28.911 16.7811C29.1887 16.7271 29.8192 16.7271 30.1634 16.7811C30.9154 16.8994 31.4678 17.1721 31.9248 17.6505C32.1707 17.9128 32.3905 18.327 32.4483 18.633C32.4715 18.7616 32.4252 18.8208 32.1446 19.0189C31.7079 19.3275 31.624 19.4561 31.6009 19.8162C31.5806 20.1918 31.7137 20.5982 31.9856 20.9763C32.2227 21.3055 32.778 21.9614 32.9776 22.1492C33.2206 22.3755 33.3883 22.4604 33.5821 22.4578C33.9436 22.4501 34.2271 22.1106 34.4382 21.4238C34.4787 21.2901 34.5799 20.966 34.6609 20.7036C34.9039 19.9217 34.9126 19.6902 34.7246 19.3301C34.606 19.1037 34.4816 18.9906 34.2242 18.8774C34.0911 18.8157 33.9697 18.7411 33.9263 18.6896C33.8858 18.6433 33.7932 18.4504 33.718 18.2601C33.4953 17.6865 33.3044 17.3392 33.0007 16.9637C32.4136 16.2384 31.6153 15.7831 30.6204 15.6108C30.2617 15.549 29.5098 15.5233 29.1714 15.5593Z" fill="white"/>
<path d="M15.5429 27.2703C15.5429 27.3861 15.7135 27.6433 15.8755 27.7693C16.3151 28.1166 16.9369 28.3326 17.6832 28.3944C18.7562 28.4818 19.7309 28.7365 20.775 29.2046C21.4923 29.5235 22.0274 29.8348 22.9442 30.4727C24.4077 31.4887 25.1163 31.9131 26.0708 32.34C27.2335 32.8622 28.4078 33.1863 29.7295 33.356C30.094 33.4023 30.3601 33.4255 31.0542 33.4769L31.2769 33.4924V38.6521L31.4938 38.6804C31.7281 38.7113 32.483 38.719 32.6334 38.6933L32.7231 38.6778V33.2351L32.8764 33.2043C33.3536 33.104 33.9986 32.8493 34.3919 32.6075C35.0658 32.1934 35.5083 31.7253 35.9046 31.0051C36.3153 30.2643 36.512 29.4669 36.512 28.5538C36.512 28.1783 36.4773 27.9931 36.3645 27.795C36.2719 27.6304 36.0868 27.4272 35.9248 27.3141L35.7802 27.2112H15.5429V27.2703Z" fill="white"/>
<path d="M40.1794 27.2266C40.1678 27.2343 40.1736 27.278 40.1881 27.3218C40.2025 27.3681 40.243 27.5301 40.2777 27.687C40.3327 27.9339 40.3414 28.0548 40.3443 28.6516C40.3443 29.1892 40.3327 29.3949 40.2922 29.6238C40.1967 30.1537 40.0087 30.7556 39.8063 31.1774C39.7629 31.2752 39.734 31.3523 39.7427 31.3523C39.7687 31.3523 40.1187 31.1183 40.888 30.5884C42.0073 29.8142 42.4759 29.5364 43.225 29.2046C44.2691 28.7365 45.2438 28.4818 46.3168 28.3944C47.063 28.3326 47.6849 28.1166 48.1245 27.7693C48.2865 27.6433 48.4571 27.3861 48.4571 27.2703V27.2112H44.3269C42.0536 27.2112 40.1881 27.2189 40.1794 27.2266Z" fill="white"/>
<path d="M30.4324 33.6827C28.9978 33.9116 27.676 34.9019 27.2017 36.0954C27.0166 36.5584 26.9877 37.0239 27.1005 37.6541C27.3029 38.7961 28.1735 39.6244 29.744 40.1722C30.6088 40.4758 31.4013 40.6121 32.2748 40.6121C34.3225 40.6121 36.4888 39.7427 37.3855 38.5569C37.7094 38.1325 37.828 37.7801 37.8077 37.3197C37.7788 36.7307 37.5243 36.3166 37.0297 36.0465C36.8475 35.9462 36.376 35.7996 36.0492 35.7404C35.3493 35.6144 34.6089 35.6813 33.3247 35.9848L33.2148 36.0105V36.6021C33.2148 37.0805 33.2234 37.1937 33.2524 37.1834C33.4086 37.1294 33.825 37.0779 34.0969 37.0779C34.4932 37.0754 34.6609 37.114 34.8084 37.2451C34.9473 37.3686 34.9935 37.5049 34.9935 37.7956C34.9906 38.0528 34.927 38.2148 34.7506 38.4129C34.47 38.7215 33.8626 38.971 33.0991 39.0868C32.752 39.1408 31.6847 39.1485 31.3637 39.0997C30.577 38.9788 30.0506 38.7756 29.6717 38.4386C29.2986 38.1094 29.1829 37.7724 29.2465 37.1988C29.3073 36.6458 29.4606 36.2909 29.7614 36.0079C29.9754 35.8073 30.201 35.6838 30.5365 35.5809L30.7852 35.5064V33.6415L30.7216 33.6441C30.684 33.6441 30.5568 33.6621 30.4324 33.6827Z" fill="white"/>
<path d="M30.4498 37.0316C30.2878 37.1268 30.0535 37.2786 29.932 37.3686L29.7093 37.5306L29.7267 37.649C29.7527 37.8239 29.8511 37.9833 30.0304 38.1454C30.2762 38.364 30.2965 38.3692 30.444 38.2508C30.5134 38.1968 30.6175 38.1222 30.6782 38.0836L30.7853 38.0116V37.4329C30.7853 37.1165 30.7766 36.8567 30.765 36.8567C30.7506 36.8593 30.6088 36.9365 30.4498 37.0316Z" fill="white"/>
<path d="M28.1561 40.1054C28.0809 40.4397 28.0549 40.7407 28.0549 41.2165C28.0549 41.7001 28.0607 41.7438 28.133 41.9573C28.4598 42.9039 29.3593 43.5881 30.8286 44.0047C31.5575 44.2131 32.1215 44.2877 34.5308 44.496C35.3579 44.568 35.4418 44.5809 35.6038 44.6478C35.7021 44.6889 35.8323 44.761 35.893 44.8124C36.1013 44.977 36.2227 45.0362 36.3558 45.0362C36.4512 45.0362 36.4888 45.0233 36.5235 44.9796C36.5843 44.9024 36.5814 44.8355 36.5062 44.6581C36.3558 44.2954 35.7484 43.9353 34.9646 43.7424C34.4642 43.6189 34.2097 43.5803 32.6363 43.3874C31.757 43.282 31.2335 43.1199 30.7881 42.8113C30.1576 42.3791 29.8308 41.7747 29.7209 40.8359L29.7006 40.6584L29.449 40.5735C29.1077 40.4552 28.7086 40.2751 28.4222 40.1105L28.1851 39.9716L28.1561 40.1054Z" fill="white"/>
<path d="M31.2769 42.6106L31.5083 42.7058C31.7831 42.8164 32.4801 42.9759 32.7028 42.9785C32.7144 42.9785 32.7231 42.5258 32.7231 41.9753V40.9722H32.1099C31.7715 40.9722 31.4447 40.9645 31.3868 40.9567L31.2769 40.9387V42.6106Z" fill="white"/>
<path d="M31.2712 45.3114C31.2596 46.1268 31.2567 46.1474 31.0716 46.3351C30.8171 46.5923 30.3804 46.7492 29.4548 46.9138C28.8301 47.027 28.4743 47.1093 28.1533 47.2148C27.8727 47.3074 27.5257 47.472 27.4591 47.5415C27.3637 47.6469 26.8894 47.7189 25.7961 47.8012C25.0441 47.8578 24.7057 47.9299 24.2689 48.1305C24.0347 48.2359 23.8727 48.3568 23.8727 48.4211C23.8727 48.452 24.9891 48.4571 32 48.4571C39.011 48.4571 40.1274 48.452 40.1274 48.4211C40.1274 48.3182 39.7051 48.0842 39.3175 47.971C38.9762 47.8733 38.7622 47.8424 38.0594 47.7884C36.9343 47.7009 36.7029 47.6598 36.4947 47.5106C36.1649 47.2765 35.5923 47.1016 34.5453 46.9138C33.6197 46.7492 33.183 46.5923 32.9285 46.3351C32.7463 46.1499 32.7405 46.1191 32.7289 45.4014C32.7202 44.8741 32.7115 44.7532 32.6768 44.7532C32.5814 44.7532 31.7311 44.6478 31.5431 44.6118C31.4274 44.5912 31.3203 44.5732 31.3059 44.5732C31.2914 44.5732 31.277 44.905 31.2712 45.3114Z" fill="white"/>
</svg>
